<?xml version="1.0" standalone="no"?>
<!DOCTYPE svg PUBLIC "-//W3C//DTD SVG 20010904//EN"
 "http://www.w3.org/TR/2001/REC-SVG-20010904/DTD/svg10.dtd">
<svg version="1.0" xmlns="http://www.w3.org/2000/svg"
 width="348.000000pt" height="348.000000pt" viewBox="0 0 348.000000 348.000000"
 preserveAspectRatio="xMidYMid meet">
<metadata>
Created by potrace 1.11, written by Peter Selinger 2001-2013
</metadata>
<g transform="translate(0.000000,348.000000) scale(0.100000,-0.100000)"
fill="#000000" stroke="none">
<path d="M950 2247 c-31 -13 -94 -44 -141 -70 -84 -45 -86 -46 -102 -27 -25
30 -97 27 -135 -5 -37 -31 -44 -57 -25 -85 13 -18 23 -21 63 -18 l47 3 -15
-35 c-24 -58 -41 -89 -124 -222 -75 -120 -82 -128 -111 -128 -48 0 -81 21 -87
55 -6 37 -24 39 -28 3 -4 -37 25 -78 70 -98 l38 -17 -135 -193 c-74 -106 -132
-197 -129 -202 11 -18 64 -7 95 19 35 30 137 164 229 300 50 74 58 82 95 87
63 10 242 87 341 146 113 69 250 202 287 280 49 104 45 185 -12 215 -46 23
-154 19 -221 -8z m147 -48 c19 -17 16 -87 -7 -134 -26 -55 -123 -151 -210
-209 -66 -45 -290 -159 -298 -152 -2 2 11 27 29 56 47 76 96 193 110 264 13
68 6 61 134 132 103 57 203 75 242 43z m-446 -69 c10 -6 19 -15 19 -21 0 -13
-68 -42 -80 -34 -17 10 -11 33 12 49 27 19 24 19 49 6z"/>
<path d="M2227 1885 c-21 -19 -34 -23 -57 -18 -17 3 -30 1 -30 -4 0 -14 22
-33 40 -33 13 0 10 -19 -22 -112 -54 -162 -50 -218 17 -218 39 0 65 8 65 21 0
5 -9 9 -20 9 -22 0 -25 19 -11 66 5 16 24 78 42 137 36 120 26 111 107 90 17
-4 22 -1 22 14 0 27 -19 43 -52 43 -18 0 -28 5 -28 15 0 23 -41 17 -73 -10z"/>
<path d="M1076 1788 c-37 -57 -99 -257 -86 -278 4 -6 18 -10 31 -8 21 3 29 17
59 109 37 114 48 132 90 154 44 23 55 6 43 -62 -12 -65 -4 -93 28 -93 23 0 43
40 54 108 10 61 -12 92 -66 92 -22 0 -53 -7 -69 -15 -27 -14 -30 -14 -30 0 0
23 -38 18 -54 -7z"/>
<path d="M1469 1786 c-86 -59 -131 -175 -94 -245 17 -34 33 -41 86 -41 98 0
169 86 169 203 0 75 -25 107 -83 107 -28 0 -54 -8 -78 -24z m101 -37 c28 -52
-8 -136 -72 -168 -36 -18 -45 -19 -62 -7 -26 17 -35 53 -24 94 8 29 12 33 33
28 21 -5 27 0 44 33 28 54 59 62 81 20z"/>
<path d="M1788 1793 c-9 -10 -22 -31 -31 -48 -26 -53 -127 -379 -127 -413 0
-29 3 -32 30 -32 37 0 51 20 84 130 15 47 29 91 31 98 3 9 12 7 34 -9 43 -31
120 -23 162 17 70 67 96 183 53 241 -28 37 -90 43 -138 14 -34 -21 -34 -21
-39 -1 -6 25 -38 26 -59 3z m200 -94 c-6 -57 -36 -101 -83 -124 -33 -15 -38
-15 -61 -1 -19 13 -24 25 -24 59 0 53 10 68 40 65 19 -2 28 5 41 31 35 73 95
52 87 -30z"/>
<path d="M2447 1793 c-8 -10 -35 -67 -58 -126 -35 -88 -41 -113 -33 -135 8
-24 16 -28 62 -32 l54 -5 -24 -34 c-23 -34 -62 -63 -105 -75 -16 -5 -31 2 -57
25 -43 38 -66 33 -66 -13 1 -87 112 -127 205 -75 53 30 90 94 155 269 59 161
67 211 34 216 -29 4 -44 -23 -88 -155 -34 -101 -40 -112 -67 -122 -46 -16 -46
4 0 129 23 61 41 120 41 131 0 24 -31 25 -53 2z"/>
<path d="M2768 1793 c-9 -10 -22 -31 -31 -48 -27 -54 -127 -378 -127 -412 0
-30 3 -33 30 -33 42 0 46 8 116 228 3 9 12 7 33 -9 24 -18 39 -21 86 -17 46 4
61 10 91 39 45 43 65 90 67 156 3 71 -24 107 -82 111 -29 2 -52 -3 -76 -18
-28 -17 -35 -19 -35 -7 0 29 -49 36 -72 10z m210 -94 c-6 -56 -36 -101 -83
-123 -67 -32 -111 17 -90 102 5 21 10 23 35 18 27 -5 32 -2 50 33 22 45 46 55
74 32 14 -13 17 -26 14 -62z"/>
<path d="M3225 1791 c-98 -61 -147 -198 -94 -265 17 -22 28 -26 72 -26 59 0
113 27 126 63 18 47 -28 64 -56 20 -37 -61 -73 -62 -73 -3 0 25 6 30 49 45 66
22 121 76 121 119 0 19 -8 40 -18 49 -25 23 -90 22 -127 -2z m115 -48 c0 -22
-71 -88 -109 -101 -30 -11 -31 -10 -25 16 9 40 52 102 77 111 27 10 57 -4 57
-26z"/>
</g>
</svg>
